<svg width="65" height="41" viewBox="0 0 65 41" fill="none" xmlns="http://www.w3.org/2000/svg">
<g clip-path="url(#clip0_2317_3957)">
<path d="M20.5973 0C20.1014 0 19.6075 0.0157184 19.1211 0.0534427H22.0955C21.6091 0.0188621 21.1089 0 20.5973 0Z" fill="#594739"/>
<path d="M64.6501 40.5903C61.8858 40.5903 59.1888 38.1288 58.1297 34.9086L54.7456 24.7L53.7275 21.6223L46.562 0C46.3876 0.060778 45.5061 0.178142 42.8626 0.178142C42.4392 0.178142 41.9685 0.178142 41.4474 0.171855L33.6925 23.5232L33.5107 24.0691L33.434 24.3039L33.1735 25.0877L32.0251 28.5583L31.9747 28.7103L31.8917 28.9639C29.0349 35.727 23.9308 40.2193 18.5966 40.2193C11.5509 40.2193 8.03333 32.7426 7.21277 26.7276C6.94905 24.789 6.89442 22.7718 7.05096 20.7473H24.2555L25.677 19.6177H7.16023C7.83791 13.7652 10.2996 7.98812 14.6346 4.12766C15.9731 2.93516 17.5386 1.93861 19.2344 1.34864C20.2168 1.04685 21.4008 0.821551 22.7909 0.78697C22.9148 0.783827 23.042 0.780683 23.1723 0.780683C28.166 0.780683 34.076 6.4016 34.076 6.4016L33.9079 4.99951L33.3164 0.0534427H19.1241C8.42523 0.805832 0 9.68152 0 20.4581C0 24.6235 1.2818 28.7375 3.66049 32.161C4.19843 32.9322 4.7931 33.6647 5.4319 34.35C8.97157 38.1351 14.0736 40.7014 19.2869 40.9801C21.0552 41.0755 22.8297 40.8376 24.494 40.2287C26.0458 39.6608 27.4684 38.7921 28.7565 37.7641C30.0793 36.7078 31.2697 35.4923 32.3886 34.2264C33.5338 32.9322 34.6118 31.5805 35.7066 30.2423C36.9306 28.748 38.1336 27.2631 39.7107 26.1178C40.5218 25.5247 41.3896 25.0101 42.2869 24.5543C43.3113 24.0346 44.3829 23.5871 45.4998 23.3136C46.6639 23.0254 47.869 23.0055 49.0594 23.0212C49.32 23.0244 49.5774 23.0307 49.839 23.0307L49.8485 23.0527L50.71 25.3622L53.0603 31.6496C54.4756 35.4315 53.9576 37.3785 53.7254 37.9622C53.7254 37.9653 53.7191 37.9684 53.7191 37.9716C53.7159 37.981 53.7128 37.9904 53.7065 37.9967C53.675 38.0795 53.6487 38.1267 53.6392 38.1455C53.6329 38.155 53.6329 38.1581 53.6298 38.1613C52.9206 39.5288 51.2732 40.5882 49.673 40.5882V40.9979C53.4932 40.76 55.4296 40.7024 57.3102 40.7024C59.1909 40.7024 61.184 40.76 65.001 40.9979V40.5882H64.6512L64.6501 40.5903ZM33.8175 26.7518L41.7311 2.90582C42.4718 3.79758 43.0864 4.86958 43.5088 6.09352L47.641 17.1488L49.0121 20.8165L49.4954 22.1138C46.8142 21.9293 39.7884 21.9964 33.8175 26.7518Z" fill="#594739"/>
</g>
<defs>
<clipPath id="clip0_2317_3957">
<rect width="65" height="41" fill="white"/>
</clipPath>
</defs>
</svg>
