<svg width="24" height="24" viewBox="0 0 24 24" fill="none" xmlns="http://www.w3.org/2000/svg">
<path d="M12.0238 0H11.9692C5.35878 0 0 5.36035 0 11.9727V12.0273C0 18.6397 5.35878 24 11.9692 24H12.0238C18.6342 24 23.9929 18.6397 23.9929 12.0273V11.9727C23.9929 5.36035 18.6342 0 12.0238 0Z" fill="#383D38"/>
<path d="M5.72324 7.97502C5.40718 7.68157 5.25 7.31833 5.25 6.88614C5.25 6.45395 5.40802 6.07473 5.72324 5.78044C6.0393 5.48699 6.44615 5.33984 6.94462 5.33984C7.44309 5.33984 7.83397 5.48699 8.14919 5.78044C8.46525 6.07389 8.62243 6.44302 8.62243 6.88614C8.62243 7.32926 8.46441 7.68157 8.14919 7.97502C7.83313 8.26847 7.43216 8.41562 6.94462 8.41562C6.45708 8.41562 6.0393 8.26847 5.72324 7.97502ZM8.35681 9.65838V18.6553H5.51478V9.65838H8.35681Z" fill="#FEFFFC"/>
<path d="M17.8147 10.5481C18.4342 11.2207 18.7435 12.144 18.7435 13.3195V18.4973H16.0444V13.6844C16.0444 13.0916 15.8906 12.6308 15.5838 12.3029C15.2769 11.975 14.8634 11.8102 14.3456 11.8102C13.8278 11.8102 13.4142 11.9741 13.1074 12.3029C12.8006 12.6308 12.6467 13.0916 12.6467 13.6844V18.4973H9.93164V9.63408H12.6467V10.8096C12.9216 10.4177 13.2923 10.1083 13.758 9.88045C14.2237 9.65258 14.7474 9.53906 15.3299 9.53906C16.3672 9.53906 17.196 9.8754 17.8147 10.5472V10.5481Z" fill="#FEFFFC"/>
</svg>
