<svg width="24" height="24" viewBox="0 0 24 24" fill="none" xmlns="http://www.w3.org/2000/svg">
<path d="M12.0238 0H11.9691C5.35877 0 0 5.36035 0 11.9727V12.0273C0 18.6397 5.35877 24 11.9691 24H12.0238C18.6342 24 23.9929 18.6397 23.9929 12.0273V11.9727C23.9929 5.36035 18.6342 0 12.0238 0Z" fill="#383D38"/>
<path d="M17.7937 8.68341V10.9495C17.3978 10.9108 16.8833 10.8208 16.3143 10.6123C15.5712 10.3399 15.0181 9.96737 14.6558 9.67896V14.259L14.6465 14.2447C14.6524 14.3355 14.6558 14.428 14.6558 14.5213C14.6558 16.7958 12.8057 18.6473 10.531 18.6473C8.25639 18.6473 6.40625 16.7958 6.40625 14.5213C6.40625 12.2469 8.25639 10.3945 10.531 10.3945C10.7538 10.3945 10.9723 10.4122 11.1858 10.4466V12.6799C10.9807 12.6068 10.7605 12.5672 10.531 12.5672C9.45423 12.5672 8.57749 13.4434 8.57749 14.5213C8.57749 15.5993 9.45423 16.4754 10.531 16.4754C11.6078 16.4754 12.4845 15.5985 12.4845 14.5213C12.4845 14.481 12.4837 14.4406 12.4812 14.4003V5.5H14.7449C14.7533 5.69171 14.7609 5.88511 14.7693 6.07682C14.7844 6.45435 14.9189 6.81675 15.1534 7.11357C15.4283 7.46251 15.8343 7.8678 16.4042 8.19152C16.938 8.49338 17.439 8.62371 17.7937 8.68509V8.68341Z" fill="white"/>
</svg>
