<svg width="24" height="24" viewBox="0 0 24 24" fill="none" xmlns="http://www.w3.org/2000/svg">
<path d="M12.0238 0H11.9691C5.35877 0 0 5.36035 0 11.9727V12.0273C0 18.6397 5.35877 24 11.9691 24H12.0238C18.6342 24 23.9929 18.6397 23.9929 12.0273V11.9727C23.9929 5.36035 18.6342 0 12.0238 0Z" fill="#383D38"/>
<path d="M15.7101 4.88086H8.28601C6.23498 4.88086 4.56641 6.54992 4.56641 8.60156V15.3955C4.56641 17.4472 6.23498 19.1162 8.28601 19.1162H15.7101C17.7611 19.1162 19.4297 17.4472 19.4297 15.3955V8.60156C19.4297 6.54992 17.7611 4.88086 15.7101 4.88086ZM5.87857 8.60156C5.87857 7.27388 6.95872 6.1934 8.28601 6.1934H15.7101C17.0374 6.1934 18.1175 7.27388 18.1175 8.60156V15.3955C18.1175 16.7232 17.0374 17.8037 15.7101 17.8037H8.28601C6.95872 17.8037 5.87857 16.7232 5.87857 15.3955V8.60156Z" fill="white"/>
<path d="M11.995 15.4589C13.9023 15.4589 15.4549 13.9067 15.4549 11.998C15.4549 10.0893 13.9032 8.53711 11.995 8.53711C10.0869 8.53711 8.53516 10.0893 8.53516 11.998C8.53516 13.9067 10.0869 15.4589 11.995 15.4589ZM11.995 9.8505C13.1794 9.8505 14.1427 10.8141 14.1427 11.9988C14.1427 13.1836 13.1794 14.1472 11.995 14.1472C10.8106 14.1472 9.84732 13.1836 9.84732 11.9988C9.84732 10.8141 10.8106 9.8505 11.995 9.8505Z" fill="white"/>
<path d="M15.7681 9.0974C16.2817 9.0974 16.7004 8.6795 16.7004 8.16491C16.7004 7.65032 16.2826 7.23242 15.7681 7.23242C15.2537 7.23242 14.8359 7.65032 14.8359 8.16491C14.8359 8.6795 15.2537 9.0974 15.7681 9.0974Z" fill="white"/>
</svg>
