<svg width="24" height="24" viewBox="0 0 24 24" fill="none" xmlns="http://www.w3.org/2000/svg">
<path d="M23.9929 12C23.9929 5.37258 18.6219 0 11.9965 0C5.37101 0 0 5.37258 0 12C0 18.6274 5.37101 24 11.9965 24C18.6219 24 23.9929 18.6274 23.9929 12Z" fill="#383D38"/>
<path d="M19.5522 9.51243C19.4578 8.6009 19.2546 7.59324 18.5069 7.06369C17.9278 6.65304 17.1666 6.63786 16.4559 6.6387C14.9537 6.6387 13.4507 6.64123 11.9485 6.64208C10.5036 6.64376 9.05877 6.64461 7.6139 6.64629C7.01033 6.64629 6.42361 6.59991 5.86303 6.86131C5.38169 7.08561 5.00488 7.51229 4.77811 7.98703C4.46368 8.64728 4.39793 9.39522 4.36 10.1255C4.29003 11.4552 4.29762 12.7884 4.38107 14.1173C4.44261 15.087 4.59856 16.1588 5.34797 16.7769C6.01224 17.3241 6.94963 17.3511 7.81116 17.3519C10.5458 17.3545 13.2813 17.357 16.0167 17.3587C16.3674 17.3595 16.7333 17.3528 17.0907 17.314C17.7937 17.2381 18.4639 17.0366 18.9157 16.5155C19.3718 15.9901 19.489 15.259 19.5581 14.5667C19.7267 12.887 19.725 11.1913 19.5522 9.51243ZM10.3671 14.3534V9.64397L14.4438 11.9983L10.3671 14.3534Z" fill="white"/>
</svg>
